<?xml version="1.0" encoding="UTF-8"?>
<svg id="_Ícones" data-name="Ícones" xmlns="http://www.w3.org/2000/svg" viewBox="0 0 1080 1080">
  <defs>
    <style>
      .cls-1, .cls-2 {
        stroke-width: 10px;
        fill: #FFD700; /* Cor amarela */
      }

      .cls-2 {
        fill: #FFD700; /* Cor amarela */
      }
    </style>
  </defs>
  <polygon class="cls-1" points="202 788.24 262 788.24 421 345.24 503.55 566.74 560.06 566.74 460 289.24 388.97 289.24 202 788.24"/>
  <polygon class="cls-1" points="524 622.24 584.84 788.24 640.58 788.24 582.29 622.24 524 622.24"/>
  <path class="cls-2" d="M878,578.32v33.47c0,5.77-4.68,10.45-10.45,10.45h-147.49v158.27c0,5.66-4.58,10.25-10.24,10.25h-34.58c-5.65,0-10.24-4.59-10.24-10.25v-158.27h-141l-20.45-55.5,161.45.65v-155.91c0-5.65,4.59-10.24,10.24-10.24h34.58c5.66,0,10.24,4.59,10.24,10.24v156.13l147.86.59c5.58.02,10.08,4.54,10.08,10.12Z"/>
</svg>
